<svg xmlns="http://www.w3.org/2000/svg" viewBox="0 0 64 64" role="img" aria-label="Black mana">
  <circle cx="32" cy="32" r="30" fill="#252326" stroke="#8b858d" stroke-width="3"/>
  <path fill="#f2edf0" d="M32 10c12.2 0 21 8.3 21 20.1 0 8.4-4.2 13.1-10 16.1v8.3c0 2-1.6 3.5-3.5 3.5H24.5c-2 0-3.5-1.6-3.5-3.5v-8.3c-5.8-3-10-7.7-10-16.1C11 18.3 19.8 10 32 10z"/>
  <path fill="#252326" d="M21 31.5c0-4 2.8-7 6.6-7 4.9 0 7.6 4.4 5 8.6-2.6 4.1-11.6 3.7-11.6-1.6zM43 31.5c0-4-2.8-7-6.6-7-4.9 0-7.6 4.4-5 8.6 2.6 4.1 11.6 3.7 11.6-1.6zM32 35l5 10H27zM25 47h4v9h-4zM31 47h4v9h-4zM37 47h4v9h-4z"/>
</svg>
