<svg xmlns="http://www.w3.org/2000/svg" viewBox="0 0 64 64" role="img" aria-label="Green mana">
  <circle cx="32" cy="32" r="30" fill="#54d77b" stroke="#1e7a3e" stroke-width="3"/>
  <path fill="#082513" d="M30 54V39c-8.5 6.2-17.6 1.6-20-6.5 6.2-.6 10.5-3.3 12.6-8.4C25.1 18.1 29.2 13.3 37 10c1.8 7.6-.8 15-6.6 20.4 5.4-3 10.2-7.4 14.4-13.4 5.9 8.2 2.5 19.1-6.3 22.6 4.9.8 8.9-.5 12.3-3.7-.8 9.5-10.9 14.8-19.1 8.8V54z"/>
  <path fill="#c8ffd6" opacity=".55" d="M28 30c-4.9 3-9.1 3.9-12.9 3.3 5 4.8 11.1 1.8 16.4-3.7 6-6.2 8.8-11.6 8.4-16.1-3.7 6.4-7.6 11.9-11.9 16.5z"/>
</svg>
