<svg xmlns="http://www.w3.org/2000/svg" viewBox="0 0 64 64" role="img" aria-label="Red mana">
  <circle cx="32" cy="32" r="30" fill="#ff7b4a" stroke="#b23620" stroke-width="3"/>
  <path fill="#2a0e08" d="M34 5c2.5 9.2 12.5 13.2 12.5 25.8 0 13.8-8.5 24.2-22.1 24.2-7.6 0-14.4-5.9-14.4-15.6 0-8.8 5.8-14.6 11.1-18.3-.8 5.8 1.8 9.2 5.3 11.4C25.8 21.3 31.6 17 34 5z"/>
  <path fill="#ffd07a" d="M36 26c4.9 6.7 4.5 19.1-5.8 23.3-4.7 1.9-10.2-.9-10.2-6.5 0-4.8 3.4-8 7.3-10.9-.5 4.8 1.4 7.4 4.4 8.4-.6-6.2 1.8-10.3 4.3-14.3z"/>
</svg>
